<svg xmlns="http://www.w3.org/2000/svg" xmlns:xlink="http://www.w3.org/1999/xlink" version="1.1" x="0px" y="0px" viewBox="0 0 88 88" enable-background="new 0 0 88 88" xml:space="preserve"><title>Wireframe Icon Profile</title><desc>Created with Sketch.</desc><path d="M62.975,62c-0.199-7.445-4.779-13.798-11.271-16.545C54.91,43.087,57,39.292,57,35c0-7.18-5.82-13-13-13s-13,5.82-13,13  c0,4.468,2.256,8.408,5.689,10.748C30.524,48.628,26.218,54.794,26.025,62H26v4h37v-4H62.975z M35,35c0-4.971,4.029-9,9-9  s9,4.029,9,9s-4.029,9-9,9S35,39.971,35,35z M30.025,62c0.266-7.774,6.635-14,14.475-14c7.839,0,14.209,6.226,14.475,14H30.025z"></path></svg>