<?xml version="1.0" encoding="UTF-8" standalone="no"?>
<!-- Created with Inkscape (http://www.inkscape.org/) -->

<svg
   xmlns:dc="http://purl.org/dc/elements/1.1/"
   xmlns:cc="http://creativecommons.org/ns#"
   xmlns:rdf="http://www.w3.org/1999/02/22-rdf-syntax-ns#"
   xmlns:svg="http://www.w3.org/2000/svg"
   xmlns="http://www.w3.org/2000/svg"
   xmlns:sodipodi="http://sodipodi.sourceforge.net/DTD/sodipodi-0.dtd"
   xmlns:inkscape="http://www.inkscape.org/namespaces/inkscape"
   id="svg3548"
   version="1.1"
   inkscape:version="0.91 r13725"
   width="400"
   height="360"
   viewBox="0 0 400 360"
   sodipodi:docname="Picture physics gray.svg">
  <metadata
     id="metadata3554">
    <rdf:RDF>
      <cc:Work
         rdf:about="">
        <dc:format>image/svg+xml</dc:format>
        <dc:type
           rdf:resource="http://purl.org/dc/dcmitype/StillImage" />
        <dc:title></dc:title>
      </cc:Work>
    </rdf:RDF>
  </metadata>
  <defs
     id="defs3552" />
  <sodipodi:namedview
     pagecolor="#ffffff"
     bordercolor="#666666"
     borderopacity="1"
     objecttolerance="10"
     gridtolerance="10"
     guidetolerance="10"
     inkscape:pageopacity="0"
     inkscape:pageshadow="2"
     inkscape:window-width="1280"
     inkscape:window-height="960"
     id="namedview3550"
     showgrid="false"
     inkscape:zoom="1.4142136"
     inkscape:cx="226.58393"
     inkscape:cy="63.946256"
     inkscape:window-x="0"
     inkscape:window-y="27"
     inkscape:window-maximized="1"
     inkscape:current-layer="svg3548" />
  <path
     style="fill:#1a1916;fill-opacity:0.89019608;stroke:none;stroke-width:0.89999998;stroke-linejoin:bevel;stroke-miterlimit:4;stroke-dasharray:none;stroke-opacity:0.00392157"
     d="M 200.01953 7.15625 C 190.21362 7.156255 181.73142 13.436036 174.87891 22.722656 C 168.03526 31.997243 162.27818 44.729955 157.44531 60.214844 C 155.82931 65.392649 154.33182 70.906022 152.93945 76.673828 C 142.21172 70.311682 132.00103 65.205395 122.49805 61.626953 C 121.98731 61.224113 121.45901 60.820652 120.91406 60.414062 C 116.44277 57.077922 110.89631 53.597963 107.03516 50.476562 C 102.14049 46.519672 96.381102 45.449064 91.576172 46.058594 C 86.771242 46.668104 82.556511 48.604102 80.988281 52.570312 C 79.420881 56.534483 81.172849 60.824088 84.261719 64.548828 C 84.647839 65.014418 85.062949 65.470162 85.505859 65.914062 C 85.948729 66.357983 86.418826 66.789515 86.916016 67.203125 C 89.899296 69.684625 93.846178 71.548966 98.548828 71.910156 C 104.15118 72.340456 110.3282 73.950781 115.5 74.957031 C 118.08591 75.460141 120.40375 75.835489 122.56836 75.724609 C 123.06824 75.699009 123.56602 75.645605 124.0625 75.546875 C 132.11793 79.021662 140.93706 83.637731 150.17578 89.265625 C 147.89426 100.72432 146.04318 113.07138 144.67773 126.11523 C 127.57225 127.9059 111.63577 130.5218 97.365234 133.85547 C 91.950411 124.50763 87.635073 115.67868 84.578125 107.73047 C 80.758735 97.799856 78.908742 89.212725 79.070312 82.859375 L 76.097656 79.732422 L 69.998047 79.578125 L 66.871094 82.548828 C 66.647174 91.354668 68.905422 101.30143 73.107422 112.18555 C 76.127205 120.00742 80.179444 128.32254 85.09375 137.01172 C 82.942675 137.61879 80.83249 138.2414 78.777344 138.88281 C 63.292455 143.71568 50.559741 149.47277 41.285156 156.31641 C 31.998772 163.16876 25.718749 171.64916 25.71875 181.45508 C 25.718755 191.26099 31.998536 199.74319 41.285156 206.5957 C 50.559743 213.43935 63.292455 219.19643 78.777344 224.0293 C 79.878794 224.37306 81.025031 224.70118 82.154297 225.03516 C 80.2493 228.30687 78.445448 231.53378 76.791016 234.68945 C 69.258906 249.05627 64.326362 262.13004 62.607422 273.52734 C 60.886302 284.93915 62.44117 295.37671 69.375 302.31055 C 76.30883 309.24437 86.748076 310.80125 98.160156 309.08008 C 109.55748 307.36115 122.63123 302.4286 136.99805 294.89648 C 142.35135 292.0899 147.88377 288.9153 153.55469 285.39648 C 156.73645 298.18478 160.48356 309.62048 164.87305 319.3125 C 164.94935 319.9585 165.03888 320.61622 165.13672 321.28906 C 165.93939 326.80975 167.40075 333.19345 167.92383 338.13086 C 168.58694 344.38986 171.90187 349.21895 175.73047 352.18555 C 179.55906 355.15216 183.90883 356.76399 187.82227 355.06836 C 191.73368 353.37359 193.52693 349.10115 193.97656 344.2832 C 194.03276 343.68095 194.0618 343.06456 194.0625 342.4375 C 194.06324 341.81044 194.03566 341.17333 193.97656 340.5293 C 193.62175 336.66512 192.14996 332.55529 189.08008 328.97461 C 185.42289 324.70889 182.19354 319.20448 179.24805 314.83594 C 177.77529 312.65167 176.40198 310.74518 174.79297 309.29297 C 174.4214 308.9576 174.03023 308.64455 173.60938 308.36328 C 170.18043 299.73207 167.04619 289.60694 164.39648 278.35156 C 173.01777 272.51891 181.88629 265.95644 190.87695 258.74219 C 205.25536 270.67701 219.39559 280.98851 232.79102 289.40039 C 230.2348 298.46431 227.36671 306.59641 224.28711 313.52539 C 219.96582 323.24811 215.20244 330.62956 210.5957 335.00781 L 210.48633 339.32031 L 214.68945 343.74219 L 219.00195 343.85156 C 225.38696 337.78323 230.82386 329.15383 235.54883 318.48633 C 238.53622 311.74169 241.23315 304.16884 243.65625 295.89648 C 246.04956 297.25459 248.42301 298.57002 250.75195 299.79102 C 265.11877 307.32313 278.19449 312.25567 289.5918 313.97461 C 301.00361 315.69573 311.44116 314.14086 318.375 307.20703 C 325.30882 300.2732 326.8657 289.83396 325.14453 278.42188 C 323.4256 267.02456 318.49306 253.9508 310.96094 239.58398 C 308.95153 235.75123 306.73896 231.82167 304.36133 227.82031 C 316.98724 224.6599 328.28439 220.94512 337.875 216.60156 C 338.521 216.52527 339.17872 216.43573 339.85156 216.33789 C 345.37225 215.53522 351.75595 214.07386 356.69336 213.55078 C 362.95236 212.88767 367.78145 209.57274 370.74805 205.74414 C 373.71466 201.91555 375.32649 197.56578 373.63086 193.65234 C 371.93609 189.74093 367.66365 187.94768 362.8457 187.49805 C 362.24345 187.44187 361.62706 187.41285 361 187.41211 C 360.37294 187.41137 359.73583 187.43891 359.0918 187.49805 C 355.22762 187.85286 351.11779 189.32465 347.53711 192.39453 C 343.27139 196.05172 337.76698 199.28107 333.39844 202.22656 C 331.21417 203.69932 329.30768 205.07263 327.85547 206.68164 C 327.5201 207.05321 327.20705 207.44437 326.92578 207.86523 C 318.46357 211.22704 308.56167 214.30351 297.57031 216.91992 C 289.74835 204.93352 280.45212 192.40805 269.9043 179.70117 C 278.99622 168.3672 287.11295 157.16159 294.04688 146.37305 C 294.27193 146.02288 294.4805 145.67928 294.70312 145.33008 C 295.32297 145.47028 295.95717 145.6052 296.57031 145.74805 C 310.31313 148.94965 322.36518 152.86622 332.08789 157.1875 C 341.81061 161.50879 349.19206 166.27217 353.57031 170.87891 L 357.88281 170.98828 L 362.30469 166.78516 L 362.41406 162.47266 C 356.34573 156.08765 347.71633 150.65075 337.04883 145.92578 C 326.89551 141.42858 314.85927 137.59522 301.37891 134.35938 C 307.05599 124.55128 311.65773 115.19206 314.95508 106.43555 C 315.35792 105.92481 315.75943 105.39651 316.16602 104.85156 C 319.50216 100.38027 322.98406 94.833806 326.10547 90.972656 C 330.06236 86.077986 331.13296 80.318602 330.52344 75.513672 C 329.91392 70.708742 327.97793 66.492058 324.01172 64.923828 C 320.04755 63.356428 315.75794 65.110349 312.0332 68.199219 C 311.5676 68.585339 311.11186 69.000449 310.66797 69.443359 C 310.22405 69.886229 309.79252 70.356326 309.37891 70.853516 C 306.89741 73.836796 305.03111 77.783678 304.66992 82.486328 C 304.23963 88.088678 302.63125 94.263747 301.625 99.435547 C 301.12189 102.02146 300.7446 104.34125 300.85547 106.50586 C 300.88107 107.00574 300.93642 107.50352 301.03516 108 C 297.87523 115.32549 293.78185 123.27878 288.83398 131.60742 C 278.35034 129.52635 267.14243 127.81372 255.40234 126.49414 C 253.60127 109.15077 250.95072 93.006249 247.56641 78.570312 C 255.12374 74.424914 262.28921 71.039561 268.85156 68.515625 C 278.78217 64.696235 287.36931 62.844289 293.72266 63.005859 L 296.84961 60.035156 L 297.00391 53.935547 L 294.03125 50.808594 C 285.22541 50.584674 275.2806 52.842922 264.39648 57.044922 C 258.04168 59.498318 251.35651 62.640311 244.41602 66.361328 C 243.82379 64.268353 243.21659 62.216748 242.5918 60.214844 C 237.75893 44.729955 232.00184 31.997241 225.1582 22.722656 C 218.30585 13.436272 209.82545 7.156249 200.01953 7.15625 z M 200.01953 19.357422 C 204.53875 19.357421 209.74766 22.386243 215.33984 29.964844 C 220.92209 37.529973 226.37534 49.205098 230.94531 63.847656 C 231.81778 66.643126 232.65142 69.578613 233.46094 72.583984 C 232.04931 73.430736 230.63042 74.292497 229.20117 75.181641 C 216.86281 82.857396 203.91205 92.139167 190.78711 102.74023 C 181.65535 95.623305 172.6405 89.175018 163.88477 83.482422 C 165.46669 76.482841 167.203 69.899498 169.0918 63.847656 C 173.6617 49.205331 179.11678 37.530234 184.69922 29.964844 C 190.29141 22.386242 195.50031 19.357423 200.01953 19.357422 z M 235.04688 78.777344 C 235.04688 78.777344 235.04688 78.779297 235.04688 78.779297 C 234.17252 79.306961 233.3086 79.812137 232.42578 80.361328 C 233.30889 79.811944 234.17293 79.305867 235.04688 78.777344 z M 236.49609 85.025391 C 239.19317 97.253218 241.39211 110.77485 242.98242 125.26562 C 234.1522 124.50884 225.07003 123.97327 215.79883 123.67383 C 210.71419 119.1261 205.62366 114.74837 200.54883 110.56641 C 212.60878 100.94419 224.45081 92.507108 235.64844 85.541016 C 235.93308 85.363938 236.21224 85.200545 236.49609 85.025391 z M 161.25195 96.365234 C 167.75137 100.72933 174.41167 105.53415 181.16406 110.73047 C 176.04229 115.09323 170.90943 119.64148 165.79297 124.36719 C 162.8645 124.5455 159.96112 124.74555 157.08789 124.9707 C 158.19588 114.93324 159.59606 105.36394 161.25195 96.365234 z M 190.92578 118.46289 C 192.9059 120.07747 194.88963 121.71877 196.87695 123.39453 C 192.87175 123.40516 188.90686 123.46656 184.97266 123.5625 C 186.95887 121.83251 188.9439 120.13356 190.92578 118.46289 z M 289.41406 129.7207 L 289.41406 129.72656 A 0.0078125 0.005859375 0 0 1 289.41602 129.72656 A 0.0078125 0.005859375 0 0 1 289.41797 129.72656 A 0.0078125 0.005859375 0 0 1 289.41797 129.72461 A 0.0078125 0.005859375 0 0 1 289.41992 129.72461 A 0.0078125 0.005859375 0 0 1 289.42188 129.72266 A 0.0078125 0.005859375 0 0 1 289.42188 129.7207 L 289.41406 129.7207 z M 198.34375 135.58398 C 202.58191 135.58398 206.78679 135.64051 210.95898 135.74023 C 216.91829 141.16348 222.86456 146.8255 228.74609 152.70703 C 234.68554 158.64648 240.37731 164.62245 245.80664 170.58984 C 245.85932 173.63334 245.89062 176.69584 245.89062 179.78125 C 245.89062 183.00106 245.85271 186.19617 245.79492 189.37891 C 238.89978 197.1825 231.57128 204.98535 223.875 212.68164 C 218.84413 217.71251 213.78826 222.54745 208.73242 227.21484 C 205.28911 227.28266 201.82852 227.32617 198.34375 227.32617 C 189.82105 227.32617 181.45027 227.12194 173.2793 226.73047 C 170.1388 223.74203 166.99989 220.70497 163.87305 217.57812 C 160.83446 214.53954 157.85949 211.48491 154.94141 208.42188 C 154.42612 199.07731 154.14844 189.50676 154.14844 179.78125 C 154.14844 170.30107 154.41437 161.02241 154.89648 151.98438 C 156.25831 150.5922 157.61514 149.19931 159.00391 147.81055 C 162.94175 143.87271 166.90718 140.04593 170.88281 136.3125 C 179.81521 135.84185 188.98092 135.58398 198.34375 135.58398 z M 229.66211 136.5293 C 234.57147 136.82609 239.41752 137.18464 244.17383 137.61523 C 244.56427 142.33469 244.88459 147.1463 245.14453 152.02539 C 242.5962 149.37187 240.01866 146.72178 237.375 144.07812 C 234.81534 141.51846 232.24147 139.00802 229.66211 136.5293 z M 143.5332 138.52344 C 143.31994 141.2449 143.1283 143.99256 142.95703 146.76367 C 135.51136 154.50212 128.46505 162.26818 121.88672 169.98633 C 115.28971 161.41182 109.32781 152.98847 104.09961 144.86719 C 116.11009 142.23946 129.35479 140.08893 143.5332 138.52344 z M 256.5332 138.90234 C 265.35946 139.94483 273.82765 141.22198 281.86719 142.70312 C 275.99857 151.61665 269.28541 160.85639 261.8418 170.23438 C 260.54609 168.75159 259.22666 167.26792 257.89844 165.7832 C 257.66386 156.59911 257.20944 147.61761 256.5332 138.90234 z M 298.11914 139.84766 C 300.28939 140.35505 302.40836 140.88245 304.49805 141.41992 L 304.49414 141.42578 C 302.4058 140.88447 300.28806 140.35488 298.11914 139.84766 z M 91.574219 147.90039 C 97.972266 158.13942 105.47583 168.79486 113.91016 179.61719 C 104.34207 191.46015 95.906707 203.09914 88.757812 214.25195 C 86.58969 213.64463 84.464025 213.02383 82.410156 212.38281 C 67.767831 207.81291 56.092734 202.35783 48.527344 196.77539 C 40.948742 191.1832 37.919923 185.9743 37.919922 181.45508 C 37.919921 176.93586 40.948743 171.72695 48.527344 166.13477 C 56.092473 160.55252 67.767598 155.09927 82.410156 150.5293 C 85.338313 149.61541 88.416105 148.74509 91.574219 147.90039 z M 199.5 156.23242 A 24.5 24.5 0 0 0 175 180.73242 A 24.5 24.5 0 0 0 199.5 205.23242 A 24.5 24.5 0 0 0 224 180.73242 A 24.5 24.5 0 0 0 199.5 156.23242 z M 142.14648 165.47266 C 142.02319 170.19375 141.94531 174.95788 141.94531 179.78125 C 141.94531 184.72651 142.02011 189.62852 142.15234 194.49023 C 137.79798 189.56826 133.61973 184.64961 129.63281 179.75977 C 133.63023 175.01702 137.79635 170.24843 142.14648 165.47266 z M 261.99414 189.29883 C 270.51582 199.67731 278.12289 209.87658 284.72266 219.66797 C 275.75228 221.39804 266.21665 222.86226 256.24219 224.0332 C 257.06693 214.31943 257.63251 204.30812 257.90234 194.07227 C 259.28407 192.48054 260.64831 190.88945 261.99414 189.29883 z M 121.73633 189.37695 C 128.36544 197.42101 135.47845 205.51219 143.01562 213.55664 C 143.24881 217.21349 143.51342 220.83827 143.82031 224.41797 C 128.4128 222.72714 114.08967 220.35209 101.26562 217.41797 C 107.23167 208.38144 114.08035 198.97439 121.73633 189.37695 z M 245.11133 208.26758 C 244.79458 214.04862 244.38595 219.73961 243.88477 225.31445 C 238.42607 225.8053 232.86277 226.2073 227.21094 226.52148 C 228.97696 224.80236 230.74273 223.07172 232.50391 221.31055 C 236.82427 216.99019 241.02591 212.63736 245.11133 208.26758 z M 94.386719 228.32617 C 109.51715 232.02667 126.58978 234.91863 145.04883 236.83594 C 146.47283 249.50694 148.36924 261.54597 150.67969 272.75391 C 143.97851 277.04972 137.49468 280.86285 131.33203 284.09375 C 117.74693 291.21603 105.63286 295.61347 96.335938 297.01562 C 87.022778 298.42023 81.197523 296.87916 78.001953 293.68359 C 74.806383 290.48801 73.265302 284.66276 74.669922 275.34961 C 76.072022 266.05301 80.47135 253.94078 87.59375 240.35547 C 89.632854 236.46607 91.91728 232.4423 94.386719 228.32617 z M 291.82812 230.6875 C 294.90436 235.69335 297.7009 240.56666 300.15625 245.25 C 307.27853 258.8351 311.67597 270.94917 313.07812 280.24609 C 314.48273 289.55925 312.94166 295.38255 309.74609 298.57812 C 306.55051 301.77369 300.72526 303.31673 291.41211 301.91211 C 282.11551 300.51001 270.00523 296.11068 256.41992 288.98828 C 253.32612 287.36629 250.14425 285.58511 246.9043 283.68945 C 247.14015 282.71938 247.37983 281.76069 247.60938 280.77539 C 250.75164 267.28729 253.25006 252.3626 255.02344 236.46875 C 268.02422 235.01847 280.36593 233.06893 291.82812 230.6875 z M 242.60352 237.68359 C 240.948 251.77862 238.70408 264.98623 235.96484 276.94336 C 224.63437 269.61233 212.67588 260.84949 200.47461 250.83203 C 204.8459 247.13107 209.23147 243.29171 213.62305 239.30469 C 223.50622 239.02534 233.197 238.48268 242.60352 237.68359 z M 157.47461 237.96875 C 160.98517 238.24109 164.54476 238.47156 168.13672 238.67383 C 172.56257 242.81815 176.98971 246.81488 181.4082 250.67578 C 174.70882 255.99178 168.11038 260.89432 161.66211 265.39648 C 160.01229 256.7363 158.60651 247.55578 157.47461 237.96875 z M 187.07422 239.40039 C 189.67815 239.45378 192.2988 239.48569 194.93359 239.50195 C 193.62097 240.62693 192.31251 241.73081 191.00391 242.82812 C 189.69496 241.69515 188.38574 240.56009 187.07422 239.40039 z M 241.66797 279.39258 C 241.58847 279.73384 241.50242 280.0559 241.42188 280.39453 C 241.4211 280.39406 241.42069 280.39305 241.41992 280.39258 C 241.50046 280.0545 241.58859 279.73328 241.66797 279.39258 z "
     id="path3564" />
</svg>
